<svg xmlns="http://www.w3.org/2000/svg" viewBox="0 0 24 24" fill="none" stroke="currentColor" stroke-width="1.8" stroke-linecap="round" stroke-linejoin="round" aria-hidden="true">
  <circle cx="12" cy="12" r="2.7"/>
  <path d="M19.4 15a1.2 1.2 0 0 0 .3 1.3l.1.1a1.9 1.9 0 0 1-2.7 2.7l-.1-.1a1.2 1.2 0 0 0-1.3-.3 1.2 1.2 0 0 0-.7 1.1V20a2 2 0 0 1-4 0v-.2a1.2 1.2 0 0 0-.8-1.1 1.2 1.2 0 0 0-1.3.3l-.1.1a1.9 1.9 0 0 1-2.7-2.7l.1-.1a1.2 1.2 0 0 0 .3-1.3 1.2 1.2 0 0 0-1.1-.8H4a2 2 0 0 1 0-4h.2a1.2 1.2 0 0 0 1.1-.8 1.2 1.2 0 0 0-.3-1.3l-.1-.1a1.9 1.9 0 0 1 2.7-2.7l.1.1a1.2 1.2 0 0 0 1.3.3 1.2 1.2 0 0 0 .8-1.1V4a2 2 0 0 1 4 0v.2a1.2 1.2 0 0 0 .7 1.1 1.2 1.2 0 0 0 1.3-.3l.1-.1a1.9 1.9 0 0 1 2.7 2.7l-.1.1a1.2 1.2 0 0 0-.3 1.3 1.2 1.2 0 0 0 1.1.8H20a2 2 0 0 1 0 4h-.2a1.2 1.2 0 0 0-1.1.8Z"/>
</svg>
